<svg width="42" height="41" viewBox="0 0 42 41" fill="none" xmlns="http://www.w3.org/2000/svg">
<path fill-rule="evenodd" clip-rule="evenodd" d="M5.92577 0C3.07914 0 0.771484 2.30765 0.771484 5.15428V35.8457C0.771484 38.6923 3.07914 41 5.92577 41H36.6172C39.4638 41 41.7715 38.6923 41.7715 35.8457V5.15428C41.7715 2.30765 39.4638 0 36.6172 0H5.92577ZM25.609 12.7778H32.6862V14.5007H25.609V12.7778ZM21.1908 26.2857C20.849 26.9348 20.3835 27.4608 19.8098 27.8667C19.2317 28.2763 18.5674 28.5766 17.8234 28.7722C17.0879 28.9677 16.324 29.0661 15.5418 29.0661H7.07917V11.6065H15.3108C16.146 11.6065 16.8996 11.6787 17.5885 11.828C18.2735 11.9733 18.8582 12.2158 19.3521 12.5483C19.8384 12.8808 20.2191 13.3229 20.4916 13.8801C20.7577 14.4288 20.8911 15.1161 20.8911 15.9286C20.8911 16.8076 20.6917 17.5417 20.2929 18.1286C19.8908 18.7145 19.3004 19.1953 18.5111 19.5685C19.5859 19.8773 20.3816 20.4212 20.9092 21.1946C21.4395 21.9732 21.6991 22.9048 21.6991 23.9971C21.6991 24.8824 21.5295 25.6448 21.1908 26.2857ZM35.4417 23.581H26.3193C26.3193 24.5803 26.6572 25.5266 27.1791 26.0345C27.6989 26.5424 28.4506 26.7978 29.4243 26.7978C30.1249 26.7978 30.7302 26.6207 31.2378 26.2678C31.7409 25.9153 32.0471 25.5385 32.1656 25.1471H35.2235C34.7321 26.6689 33.9863 27.7553 32.9691 28.4093C31.9636 29.0661 30.7373 29.3934 29.3085 29.3934C28.3127 29.3934 27.4166 29.2322 26.6118 28.9146C25.8077 28.5931 25.1357 28.1426 24.5705 27.5553C24.0195 26.9652 23.5915 26.2679 23.2866 25.4486C22.9849 24.6337 22.8327 23.7315 22.8327 22.7538C22.8327 21.8086 22.9907 20.9254 23.2995 20.1093C23.6148 19.2903 24.0506 18.5836 24.6236 17.9909C25.1978 17.3949 25.8789 16.9245 26.672 16.5811C27.4652 16.2389 28.3398 16.0667 29.3085 16.0667C30.378 16.0667 31.3149 16.2725 32.1177 16.6918C32.9179 17.1052 33.5738 17.6656 34.0892 18.3671C34.6045 19.0673 34.971 19.8682 35.2002 20.7665C35.4275 21.6633 35.5071 22.6002 35.4417 23.581Z" fill="#2A2A2A"/>
</svg>
