<?xml version="1.0" encoding="utf-8"?>
<!-- Generator: Adobe Illustrator 23.1.1, SVG Export Plug-In . SVG Version: 6.00 Build 0)  -->
<svg version="1.1" id="Warstwa_1" xmlns="http://www.w3.org/2000/svg" xmlns:xlink="http://www.w3.org/1999/xlink" x="0px" y="0px"
	 viewBox="0 0 22.7 22.7" style="enable-background:new 0 0 22.7 22.7;" xml:space="preserve">
<style type="text/css">
	.st0{fill-rule:evenodd;clip-rule:evenodd;fill:#231F20;}
	.st1{fill:#231F20;}
</style>
<path class="st0" d="M13.6-63.4l6.5,5.5c-0.2,0.2-0.6,0.4-0.9,0.4H3.5c-0.3,0-0.7-0.1-0.9-0.4l6.5-5.5l2.3,2L13.6-63.4z M11.3-62.8
	l-8.7-7.5c0.2-0.2,0.6-0.4,0.9-0.4h15.7c0.3,0,0.7,0.1,0.9,0.4L11.3-62.8z M20.5-58.6L14.2-64l6.3-5.5V-58.6z M2.2-58.6v-10.9
	L8.5-64L2.2-58.6z"/>
<path class="st1" d="M17.7-22.6H5c-1.6,0-2.8,1.3-2.8,2.8v8.5c0,1.6,1.3,2.8,2.8,2.8h1.8C6.6-7.7,6.2-6.8,5.2-6.3l0,0
	C5.1-6.3,5-6.2,5-6c0,0.2,0.2,0.4,0.4,0.4c0,0,0,0,0.1,0c1.8,0,3.7-1,4.7-2.8h7.6c1.6,0,2.8-1.3,2.8-2.8v-8.5
	C20.5-21.3,19.2-22.6,17.7-22.6z M5.7-15.5c0-0.8,0.6-1.4,1.4-1.4c0.8,0,1.4,0.6,1.4,1.4c0,0.8-0.6,1.4-1.4,1.4
	C6.3-14.1,5.7-14.8,5.7-15.5z M11.3-14.1c-0.8,0-1.4-0.6-1.4-1.4c0-0.8,0.6-1.4,1.4-1.4c0.8,0,1.4,0.6,1.4,1.4
	C12.7-14.8,12.1-14.1,11.3-14.1z M15.5-14.1c-0.8,0-1.4-0.6-1.4-1.4c0-0.8,0.6-1.4,1.4-1.4c0.8,0,1.4,0.6,1.4,1.4
	C17-14.8,16.3-14.1,15.5-14.1z"/>
<path class="st1" d="M11.3-49.1c-5.3,0-9.7,4-9.7,9c0,2.8,1.4,5.4,3.6,7v3.4l3.3-1.8c0.9,0.2,1.8,0.4,2.8,0.4c5.3,0,9.7-4,9.7-9
	C21-45,16.7-49.1,11.3-49.1z M12.3-37l-2.5-2.6L5-37l5.3-5.6l2.5,2.6l4.7-2.6L12.3-37z"/>
<g>
	<path class="st1" d="M5.7,5.9h7.8c1.8,0,3.3,1.5,3.3,3.3V17c0,1.8-1.5,3.3-3.3,3.3H5.7c-1.8,0-3.3-1.5-3.3-3.3V9.2
		C2.4,7.4,3.9,5.9,5.7,5.9z"/>
	<g>
		<path class="st1" d="M17.6,2.5H9.8c-1.4,0-2.6,1.2-2.6,2.6h6.5c2.2,0,3.9,1.8,3.9,3.9v6.5c1.4,0,2.6-1.2,2.6-2.6V5.1
			C20.2,3.6,19,2.5,17.6,2.5z"/>
	</g>
</g>
</svg>
