<svg width="87" height="21" viewBox="0 0 87 21" fill="none" xmlns="http://www.w3.org/2000/svg">
<path d="M10.5664 1.00362C12.6324 1.00362 14.6949 1.00362 16.7609 1.00362C17.6112 1.00362 18.3566 1.2967 18.9934 1.85753C19.5723 2.37134 19.9306 3.00816 20.0753 3.768C20.1115 3.96701 20.1296 4.16601 20.1296 4.36502C20.1296 8.4537 20.1296 12.5424 20.1296 16.6274C20.1296 18.2593 18.9681 19.5944 17.4484 19.9201C17.2132 19.9707 16.9781 19.9961 16.7392 19.9961C12.6252 19.9961 8.51115 20.0069 4.39718 19.9925C3.05118 19.9888 2.04529 19.352 1.39037 18.1833C1.16604 17.7817 1.05026 17.3475 1.01408 16.888C1.00684 16.8084 1.00684 16.7288 1.00684 16.6491C1.00684 12.5532 1.00684 8.45732 1.00684 4.36141C1.00684 3.46769 1.32525 2.69336 1.94398 2.04207C2.43607 1.52466 3.04032 1.19901 3.74589 1.05789C3.94128 1.01809 4.13667 1 4.33568 1L10.5664 1.00362Z" fill="#D45858"/>
<path d="M10.5664 1.00362C12.6324 1.00362 14.6949 1.00362 16.7609 1.00362C17.6112 1.00362 18.3566 1.2967 18.9934 1.85753C19.5723 2.37134 19.9306 3.00816 20.0753 3.768C20.1115 3.96701 20.1296 4.16601 20.1296 4.36502C20.1296 8.4537 20.1296 12.5424 20.1296 16.6274C20.1296 18.2593 18.9681 19.5944 17.4484 19.9201C17.2132 19.9707 16.9781 19.9961 16.7392 19.9961C12.6252 19.9961 8.51115 20.0069 4.39718 19.9925C3.05118 19.9888 2.04529 19.352 1.39037 18.1833C1.16604 17.7817 1.05026 17.3475 1.01408 16.888C1.00684 16.8084 1.00684 16.7288 1.00684 16.6491C1.00684 12.5532 1.00684 8.45732 1.00684 4.36141C1.00684 3.46769 1.32525 2.69336 1.94398 2.04207C2.43607 1.52466 3.04032 1.19901 3.74589 1.05789C3.94128 1.01809 4.13667 1 4.33568 1L10.5664 1.00362Z" stroke="white" stroke-width="1.3" stroke-miterlimit="10"/>
<path d="M39 8.40526C39 7.01901 39 5.61875 39 4.2325C39 3.50437 39.5383 3.00028 40.3159 3.00028C40.8394 3.00028 41.3777 3.00028 41.9011 3.00028C42.7086 3.00028 43.2469 3.50437 43.2469 4.26051C43.2469 6.93499 43.2469 9.60947 43.2469 12.284C43.2469 12.69 43.3068 13.1101 43.4563 13.5022C43.7852 14.3563 44.4283 14.8884 45.3704 15.1125C46.1031 15.2945 46.8807 15.2945 47.6135 15.1125C48.7799 14.8184 49.4379 14.1043 49.6622 13.0121C49.7219 12.704 49.7519 12.3959 49.7519 12.0879C49.7519 9.46945 49.7519 6.86498 49.7519 4.2465C49.7519 3.49036 50.2753 3.00028 51.0828 3.00028C51.6211 3.00028 52.1595 3.00028 52.6978 3.00028C53.4007 2.98628 53.9689 3.50437 53.9838 4.16249C53.9838 4.17649 53.9838 4.19049 53.9838 4.20449C53.9838 6.94899 54.0287 9.70752 53.9689 12.438C53.9091 15.7846 51.5912 18.277 48.1369 18.8511C46.2078 19.1732 44.3386 18.9912 42.604 18.123C40.6749 17.1429 39.5533 15.6166 39.1347 13.6142C39.0449 13.1241 39 12.62 39 12.1299C39.015 10.8837 39 9.63751 39 8.40526Z" fill="#F8F8F8"/>
<path d="M74.0437 10.4914V3.39016C74.0437 2.55653 74.5681 2.00078 75.3547 2.00078C75.8499 2.00078 76.3597 2.00078 76.855 2.00078C77.6562 2.00078 78.1806 2.55652 78.1806 3.42103C78.1806 4.84128 78.1806 6.2461 78.1806 7.66636C78.1806 7.97511 78.3554 8.14492 78.6175 8.09861C78.7195 8.06774 78.807 8.00598 78.8652 7.91336C80.2053 6.1226 81.5454 4.34729 82.8855 2.55652C83.1332 2.20147 83.5411 1.98534 83.9635 2.00078C84.5461 2.01621 85.1289 2.01621 85.6969 2.00078C86.2213 1.98534 86.6146 2.2169 86.8477 2.7109C87.0953 3.22034 87.037 3.69891 86.702 4.1466C85.9008 5.22722 85.0997 6.32329 84.2986 7.40392C83.643 8.28385 83.0021 9.16383 82.3466 10.0438C82.1282 10.3371 82.1282 10.6458 82.3466 10.9391C83.7887 12.8843 85.2162 14.8448 86.6729 16.7745C87.2847 17.5927 86.9205 18.6116 86.1777 18.9049C86.032 18.9512 85.8863 18.982 85.7406 18.982C85.1289 18.982 84.5316 18.982 83.9198 18.982C83.5119 18.9975 83.1332 18.7969 82.8855 18.4572C81.5454 16.6819 80.2053 14.9066 78.8798 13.1313C78.7487 12.9614 78.6175 12.838 78.3991 12.9152C78.1806 12.9923 78.1514 13.193 78.1514 13.4091C78.1514 14.7985 78.1369 16.1725 78.1514 17.5618C78.166 18.4417 77.5397 19.0439 76.7822 18.9975C76.2723 18.9667 75.7479 18.9975 75.2381 18.9975C74.5681 19.013 74 18.4417 74 17.7316C74 17.7162 74 17.7008 74 17.6854C74.0437 15.2771 74.0437 12.8843 74.0437 10.4914Z" fill="#F8F8F8"/>
<path d="M65.1843 15.1582C66.1158 15.1582 67.0329 14.8561 67.7637 14.2951C68.1507 14.0075 68.5949 13.9931 69.0248 14.2088C69.4977 14.4534 69.9563 14.7123 70.4005 14.9856C70.9737 15.3308 71.1599 16.0645 70.816 16.6398C70.7587 16.7406 70.6871 16.8269 70.6011 16.8988C69.6839 17.7619 68.5662 18.3804 67.3482 18.6825C63.737 19.5456 60.6131 18.6537 58.0766 15.9494C56.9016 14.7123 56.1851 13.1156 56.0418 11.4182C55.7265 7.86514 57.2025 5.20396 60.1689 3.31955C61.5015 2.47085 62.9775 2.06807 64.5539 2.01053C66.7893 1.90984 68.7812 2.52838 70.5008 3.98125C71.0883 4.47034 71.1599 5.21834 70.7014 5.76496C70.6154 5.86566 70.5151 5.95197 70.4005 6.0095C69.9419 6.26843 69.4977 6.52735 69.0391 6.77189C68.5949 7.00205 68.1507 7.00205 67.7637 6.69997C66.2017 5.49165 63.6797 5.59235 62.0747 6.72874C60.7851 7.64937 60.0399 8.88647 60.0399 10.4688C60.0399 12.3245 60.957 13.6766 62.562 14.5684C63.3214 14.9856 64.1526 15.1582 65.1843 15.1582Z" fill="#F8F8F8"/>
<path d="M26 10.5164C26 8.16773 26.0144 5.80357 26 3.45488C26 2.58956 26.6039 1.95603 27.3515 2.00239C27.8403 2.03329 28.3292 2.00239 28.818 2.00239C29.6087 2.00239 30.1264 2.55866 30.1264 3.40852C30.1264 4.61378 30.112 5.80357 30.112 7.00883C30.112 9.57389 30.112 12.1543 30.112 14.7194C30.112 15.2756 30.3421 15.5229 30.8597 15.5229H35.633C36.4813 15.5229 36.9845 16.0637 36.9845 16.9754C36.9845 17.2999 37.0276 17.6244 36.9701 17.9489C36.8695 18.5669 36.3662 19.015 35.7768 18.9996C32.93 18.9996 30.0832 18.9996 27.2364 18.9996C26.5176 18.9996 26.0144 18.4279 26.0144 17.6244C26 15.2756 26 12.896 26 10.5164Z" fill="#F8F8F8"/>
</svg>
