<svg width="100" height="100" viewBox="0 0 23 21" fill="none" xmlns="http://www.w3.org/2000/svg">
<path d="M19.4615 13.5215V17.0625C19.4615 18.1471 19.0722 19.0745 18.2936 19.8447C17.5149 20.6149 16.5773 21 15.4808 21H3.98077C2.88421 21 1.94661 20.6149 1.16797 19.8447C0.389323 19.0745 0 18.1471 0 17.0625V5.6875C0 4.60286 0.389323 3.67546 1.16797 2.90527C1.94661 2.13509 2.88421 1.75 3.98077 1.75H7.50541C7.6252 1.75 7.72887 1.79329 7.81641 1.87988C7.90395 1.96647 7.94772 2.06901 7.94772 2.1875C7.94772 2.43359 7.82792 2.57943 7.58834 2.625C6.87881 2.86198 6.26603 3.13542 5.75 3.44531C5.65785 3.48177 5.58413 3.5 5.52885 3.5H3.98077C3.3726 3.5 2.85196 3.71419 2.41887 4.14258C1.98578 4.57096 1.76923 5.08594 1.76923 5.6875V17.0625C1.76923 17.6641 1.98578 18.179 2.41887 18.6074C2.85196 19.0358 3.3726 19.25 3.98077 19.25H15.4808C16.0889 19.25 16.6096 19.0358 17.0427 18.6074C17.4758 18.179 17.6923 17.6641 17.6923 17.0625V14.1367C17.6923 13.9635 17.7752 13.8314 17.9411 13.7402C18.1991 13.6217 18.4479 13.4531 18.6875 13.2344C18.8349 13.0885 18.9962 13.0521 19.1713 13.125C19.3648 13.207 19.4615 13.3392 19.4615 13.5215ZM22.7374 6.74023L17.4297 11.9902C17.2638 12.1634 17.0565 12.25 16.8077 12.25C16.6971 12.25 16.5819 12.2272 16.4621 12.1816C16.1028 12.0267 15.9231 11.7578 15.9231 11.375V8.75H13.7115C10.7352 8.75 8.71715 9.34701 7.65745 10.541C6.5609 11.7897 6.21995 13.9453 6.63462 17.0078C6.66226 17.2174 6.57011 17.3724 6.35817 17.4727C6.28445 17.4909 6.22917 17.5 6.19231 17.5C6.04487 17.5 5.92508 17.4408 5.83293 17.3223C5.74079 17.1947 5.64403 17.0534 5.54267 16.8984C5.44131 16.7435 5.25931 16.4313 4.99669 15.9619C4.73407 15.4925 4.50601 15.0391 4.3125 14.6016C4.11899 14.1641 3.94161 13.6445 3.78035 13.043C3.61909 12.4414 3.53846 11.8854 3.53846 11.375C3.53846 10.9284 3.55459 10.5137 3.58684 10.1309C3.61909 9.74805 3.68359 9.33789 3.78035 8.90039C3.8771 8.46289 4.00611 8.06185 4.16737 7.69727C4.32863 7.33268 4.54517 6.96126 4.81701 6.58301C5.08884 6.20475 5.40445 5.86751 5.76382 5.57129C6.1232 5.27507 6.55859 4.99479 7.07001 4.73047C7.58143 4.46615 8.15505 4.24512 8.79086 4.06738C9.42668 3.88965 10.1616 3.75065 10.9955 3.65039C11.8294 3.55013 12.7348 3.5 13.7115 3.5H15.9231V0.875C15.9231 0.492188 16.1028 0.223307 16.4621 0.0683594C16.5819 0.0227865 16.6971 0 16.8077 0C17.0473 0 17.2546 0.0865885 17.4297 0.259766L22.7374 5.50977C22.9125 5.68294 23 5.88802 23 6.125C23 6.36198 22.9125 6.56706 22.7374 6.74023Z" fill="white"/>
</svg>
