<svg width="42" height="41" viewBox="0 0 42 41" fill="none" xmlns="http://www.w3.org/2000/svg">
<path fill-rule="evenodd" clip-rule="evenodd" d="M5.83983 0C2.9932 0 0.685547 2.30765 0.685547 5.15428V35.8457C0.685547 38.6923 2.9932 41 5.83983 41H36.5312C39.3779 41 41.6855 38.6923 41.6855 35.8457V5.15428C41.6855 2.30765 39.3779 0 36.5313 0H5.83983ZM32.6395 10.6707H9.32135C8.93859 10.6707 8.58025 10.7648 8.25607 10.9199L19.2224 21.831C20.192 22.8006 21.7688 22.8006 22.7385 21.831L33.7048 10.9199C33.3806 10.7648 33.0223 10.6707 32.6395 10.6707ZM34.8767 12.0918L26.2965 20.6167L34.8767 29.1416C35.0318 28.8174 35.1259 28.459 35.1259 28.0763V13.1571C35.1259 12.7744 35.0318 12.416 34.8767 12.0918ZM6.83468 13.1571C6.83468 12.7744 6.92878 12.416 7.08388 12.0918L15.664 20.6167L7.08388 29.1416C6.92878 28.8175 6.83468 28.4591 6.83468 28.0763V13.1571ZM25.1246 21.7887L23.9105 23.0029C22.2949 24.6185 19.6659 24.6185 18.0503 23.0029L16.8362 21.7887L8.25607 30.3136C8.58025 30.4687 8.93859 30.5628 9.32135 30.5628H32.6395C33.0223 30.5628 33.3806 30.4687 33.7048 30.3136L25.1246 21.7887Z" fill="#2A2A2A"/>
</svg>
