<svg width="41" height="41" viewBox="0 0 41 41" fill="none" xmlns="http://www.w3.org/2000/svg">
<path fill-rule="evenodd" clip-rule="evenodd" d="M35.6058 0H32.5601V0.000929827H8.42881H7.82841H5.3831C2.53647 0.000929827 0.228814 2.30858 0.228814 5.15521V7.60052V8.20093V32.3315H0.228516V35.3773C0.228516 38.2239 2.53617 40.5315 5.3828 40.5315H7.70313C7.74477 40.5321 7.78653 40.5324 7.82841 40.5324H13.7392C14.1259 40.5324 14.4164 40.5191 14.6099 40.4932C14.8032 40.4666 14.9966 40.3522 15.1902 40.1497C15.3839 39.9476 15.4804 39.6528 15.4804 39.2659C15.4804 39.2209 15.477 38.7741 15.4706 37.9265L15.4705 37.9222L15.4671 37.4713C15.4581 36.3276 15.4538 35.4217 15.4538 34.7531L14.8468 34.8588C14.4599 34.929 13.9717 34.96 13.3823 34.9511C12.7932 34.9422 12.1817 34.8809 11.5485 34.7664C10.9149 34.6519 10.3258 34.3882 9.78041 33.9751C9.23529 33.5613 8.84831 33.0205 8.61956 32.3522L8.3556 31.7449C8.17971 31.3407 7.90281 30.8919 7.52452 30.3998C7.14622 29.907 6.76368 29.5727 6.3767 29.3968L6.19194 29.2648C6.06892 29.1769 5.9546 29.0709 5.84895 28.9479C5.7435 28.8245 5.66438 28.7012 5.61161 28.5785C5.55883 28.4551 5.60264 28.3539 5.7435 28.2745C5.88435 28.1954 6.13917 28.1563 6.50877 28.1563L7.03633 28.2353C7.38828 28.3055 7.82342 28.5164 8.34266 28.8685C8.86153 29.2202 9.28807 29.6776 9.62236 30.2403C10.0272 30.9618 10.5149 31.5112 11.0869 31.8895C11.6585 32.2681 12.2347 32.4572 12.8152 32.4572C13.3956 32.4572 13.8969 32.4132 14.3193 32.3256C14.7412 32.2374 15.137 32.1052 15.5067 31.9293C15.665 30.7508 16.096 29.8443 16.7995 29.2111C15.7969 29.1055 14.8954 28.9473 14.0947 28.736C13.2945 28.5248 12.4676 28.182 11.6145 27.7068C10.761 27.2317 10.0531 26.6428 9.49011 25.9387C8.92724 25.2346 8.4653 24.3111 8.10494 23.168C7.74439 22.0243 7.56407 20.7047 7.56407 19.2096C7.56407 17.0811 8.2592 15.2689 9.64889 13.7737C8.99785 12.1729 9.05931 10.3788 9.83346 8.39075C10.3436 8.23234 11.1002 8.35119 12.1029 8.74705C13.1057 9.14318 13.8399 9.48191 14.3062 9.76298C14.7726 10.0441 15.1463 10.2818 15.4278 10.4756C17.0642 10.0182 18.7529 9.7895 20.4943 9.7895C22.2357 9.7895 23.9247 10.0182 25.5611 10.4756L26.5638 9.84228C27.2502 9.4199 28.0593 9.03292 28.9917 8.68124C29.9241 8.32947 30.6364 8.23261 31.1292 8.39103C31.9206 10.3791 31.9914 12.1732 31.3399 13.7739C32.7296 15.2692 33.4249 17.0814 33.4249 19.2099C33.4249 20.7053 33.2446 22.0293 32.884 23.1812C32.5237 24.3335 32.0578 25.2574 31.4856 25.9522C30.9141 26.6472 30.2015 27.2316 29.3484 27.707C28.4951 28.1818 27.6683 28.5252 26.8677 28.7358C26.0672 28.9471 25.1658 29.1059 24.1631 29.2116C25.0773 30.0029 25.5346 31.2515 25.5346 32.9583V39.2651C25.5346 39.5643 25.5782 39.806 25.6662 39.9907C25.7548 40.1754 25.8952 40.3026 26.0887 40.3735C26.283 40.4437 26.4537 40.4876 26.6036 40.5051C26.7535 40.5227 26.9686 40.5316 27.2501 40.5316H33.1609L33.1937 40.5315H35.6058C38.4524 40.5315 40.7601 38.2239 40.7601 35.3773V32.9684L40.7601 32.9317V7.60052C40.7601 7.58853 40.7601 7.57655 40.7601 7.56458V5.15428C40.7601 2.30765 38.4524 0 35.6058 0ZM11.286 32.7202C11.2158 32.9138 11.3302 33.0454 11.629 33.1161C11.8929 33.2212 12.0601 33.1686 12.1303 32.9577C12.1832 32.7645 12.0688 32.6241 11.7874 32.5355C11.5234 32.4654 11.3564 32.5261 11.286 32.7202ZM14.479 32.9842C14.4437 32.7733 14.5668 32.641 14.8486 32.5885C15.1301 32.5531 15.2884 32.6324 15.3233 32.8258C15.3587 33.0016 15.2357 33.1249 14.9539 33.1952C14.6725 33.2657 14.5142 33.1952 14.479 32.9842ZM12.9213 33.09C12.9213 32.8961 13.062 32.7999 13.3435 32.7999C13.6426 32.7645 13.7923 32.8616 13.7923 33.09C13.7923 33.2833 13.6514 33.38 13.3699 33.38C13.071 33.4152 12.9213 33.3187 12.9213 33.09ZM8.25057 29.5014C8.12755 29.589 8.14511 29.7298 8.30343 29.9233C8.47959 30.0991 8.62017 30.1256 8.72581 30.0023C8.84883 29.9147 8.83127 29.774 8.67267 29.5801C8.49688 29.422 8.35621 29.3955 8.25057 29.5014ZM7.5646 29.1586C7.38872 29.071 7.32717 28.9654 7.37985 28.842C7.43262 28.7537 7.54695 28.736 7.72283 28.7888C7.89872 28.8771 7.96027 28.9828 7.90759 29.1061C7.81988 29.2295 7.70518 29.2469 7.5646 29.1586ZM9.06949 30.5308C8.91098 30.6185 8.91098 30.7772 9.06949 31.0056C9.22781 31.2346 9.37708 31.296 9.51802 31.1903C9.67644 31.067 9.67644 30.8999 9.51802 30.6887C9.37745 30.4606 9.22781 30.4072 9.06949 30.5308ZM10.0984 32.2192C9.86934 32.025 9.83441 31.8585 9.99282 31.7175C10.1336 31.5594 10.3096 31.586 10.5204 31.7967C10.7316 31.9903 10.7668 32.1573 10.6259 32.2977C10.4852 32.4563 10.3092 32.4298 10.0984 32.2192Z" fill="#2A2A2A"/>
</svg>
