<svg width="42" height="41" viewBox="0 0 42 41" fill="none" xmlns="http://www.w3.org/2000/svg">
<path fill-rule="evenodd" clip-rule="evenodd" d="M36.0742 0H32.9337V0.000929827H8.52363H7.91629H5.38316C2.53652 0.000929827 0.228871 2.30858 0.228871 5.15522V7.68819V8.29552V32.7045H0.228516V35.8448C0.228516 38.6914 2.53617 40.9991 5.3828 40.9991H7.79055C7.83234 40.9997 7.87425 41 7.91629 41H13.8954C14.2866 41 14.5804 40.9865 14.7761 40.9603C14.9717 40.9334 15.1673 40.8177 15.3631 40.6128C15.5591 40.4084 15.6567 40.1102 15.6567 39.7189C15.6567 39.6732 15.6532 39.2185 15.6467 38.3558L15.6432 37.9036C15.6342 36.7466 15.6298 35.8303 15.6298 35.154L15.0158 35.2609C14.6244 35.3319 14.1305 35.3633 13.5343 35.3543C12.9384 35.3453 12.3199 35.2832 11.6794 35.1675C11.0385 35.0517 10.4425 34.7848 9.89085 34.367C9.33943 33.9485 8.94798 33.4015 8.71658 32.7254L8.44957 32.1111C8.27165 31.7023 7.99155 31.2483 7.60888 30.7504C7.22622 30.2519 6.83925 29.9138 6.4478 29.7359L6.26091 29.6024C6.13647 29.5135 6.02082 29.4062 5.91396 29.2818C5.80728 29.157 5.72725 29.0323 5.67387 28.9081C5.62049 28.7833 5.6648 28.6809 5.80728 28.6006C5.94977 28.5207 6.20752 28.481 6.5814 28.481L7.11506 28.561C7.47107 28.632 7.91124 28.8454 8.43648 29.2015C8.96134 29.5573 9.39281 30.0199 9.73097 30.5892C10.1405 31.3189 10.6338 31.8747 11.2125 32.2573C11.7906 32.6403 12.3735 32.8316 12.9607 32.8316C13.5478 32.8316 14.0549 32.7871 14.4822 32.6985C14.909 32.6093 15.3094 32.4755 15.6833 32.2976C15.8434 31.1055 16.2795 30.1886 16.991 29.5481C15.9768 29.4412 15.0649 29.2812 14.255 29.0675C13.4455 28.8538 12.609 28.507 11.7461 28.0264C10.8828 27.5459 10.1666 26.9501 9.59719 26.2379C9.02782 25.5257 8.56054 24.5916 8.19601 23.4353C7.8313 22.2783 7.6489 20.9436 7.6489 19.4312C7.6489 17.2782 8.35205 15.445 9.7578 13.9326C9.09924 12.3134 9.16142 10.4985 9.94451 8.48753C10.4606 8.32729 11.2259 8.44752 12.2401 8.84794C13.2545 9.24864 13.9972 9.59128 14.469 9.87559C14.9407 10.16 15.3187 10.4004 15.6035 10.5964C17.2588 10.1337 18.967 9.90242 20.7286 9.90242C22.4901 9.90242 24.1986 10.1337 25.8539 10.5964L26.8682 9.9558C27.5625 9.52855 28.3809 9.13711 29.3242 8.78137C30.2673 8.42555 30.9879 8.32757 31.4864 8.48781C32.2869 10.4988 32.3585 12.3136 31.6994 13.9328C33.1052 15.4454 33.8085 17.2784 33.8085 19.4314C33.8085 20.9441 33.6261 22.2834 33.2614 23.4486C32.897 24.6142 32.4257 25.5487 31.8469 26.2516C31.2687 26.9545 30.5479 27.5458 29.685 28.0266C28.8218 28.5068 27.9855 28.8543 27.1756 29.0673C26.3659 29.281 25.4541 29.4417 24.4398 29.5485C25.3645 30.349 25.8271 31.612 25.8271 33.3384V39.718C25.8271 40.0207 25.8712 40.2652 25.9602 40.452C26.0498 40.6388 26.1919 40.7675 26.3876 40.8392C26.5841 40.9102 26.7568 40.9546 26.9084 40.9723C27.0601 40.9902 27.2776 40.9991 27.5624 40.9991H33.5415L33.5713 40.9991H36.0741C38.9207 40.9991 41.2284 38.6914 41.2284 35.8448V33.3739L41.2286 33.3116V7.68819C41.2286 7.67239 41.2285 7.65661 41.2284 7.64085V5.15428C41.2284 2.30765 38.9208 0 36.0742 0ZM11.4137 33.0977C11.3426 33.2935 11.4584 33.4267 11.7606 33.4982C12.0276 33.6045 12.1967 33.5513 12.2677 33.3379C12.3212 33.1424 12.2055 33.0004 11.9208 32.9109C11.6538 32.8399 11.4848 32.9013 11.4137 33.0977ZM14.6435 33.3646C14.6078 33.1513 14.7324 33.0175 15.0174 32.9644C15.3021 32.9286 15.4622 33.0088 15.4976 33.2044C15.5334 33.3822 15.409 33.507 15.1239 33.5781C14.8392 33.6494 14.6791 33.5781 14.6435 33.3646ZM13.0677 33.4717C13.0677 33.2756 13.21 33.1783 13.4948 33.1783C13.7974 33.1425 13.9487 33.2407 13.9487 33.4717C13.9487 33.6672 13.8062 33.7651 13.5215 33.7651C13.2191 33.8006 13.0677 33.703 13.0677 33.4717ZM8.34324 29.8417C8.2188 29.9304 8.23657 30.0727 8.39672 30.2685C8.57491 30.4463 8.71712 30.4732 8.82398 30.3484C8.94842 30.2598 8.93065 30.1174 8.77022 29.9213C8.5924 29.7614 8.4501 29.7346 8.34324 29.8417ZM7.64953 29.495C7.47161 29.4063 7.40934 29.2995 7.46263 29.1747C7.51602 29.0854 7.63167 29.0674 7.80958 29.1209C7.9875 29.2102 8.04977 29.317 7.99648 29.4419C7.90775 29.5667 7.79173 29.5842 7.64953 29.495ZM9.17139 30.8831C9.01105 30.9717 9.01105 31.1323 9.17139 31.3633C9.33154 31.595 9.48253 31.6571 9.62511 31.5501C9.78536 31.4254 9.78536 31.2564 9.62511 31.0428C9.48291 30.812 9.33154 30.758 9.17139 30.8831ZM10.2124 32.5908C9.9807 32.3944 9.94536 32.226 10.1056 32.0834C10.248 31.9234 10.426 31.9503 10.6393 32.1635C10.8529 32.3593 10.8885 32.5282 10.746 32.6702C10.6036 32.8307 10.4256 32.8039 10.2124 32.5908Z" fill="#2A2A2A"/>
</svg>
