<svg width="88" height="23" viewBox="0 0 88 23" fill="none" xmlns="http://www.w3.org/2000/svg">
<path d="M11.5658 1.004C13.8493 1.004 16.1289 1.004 18.4124 1.004C19.3522 1.004 20.176 1.32793 20.8799 1.9478C21.5197 2.51569 21.9157 3.21955 22.0757 4.05937C22.1156 4.27933 22.1356 4.49928 22.1356 4.71923C22.1356 9.2383 22.1356 13.7574 22.1356 18.2724C22.1356 20.0761 20.8519 21.5517 19.1722 21.9117C18.9123 21.9676 18.6524 21.9957 18.3884 21.9957C13.8414 21.9957 9.29425 22.0077 4.74722 21.9917C3.25954 21.9877 2.14777 21.2838 1.42391 19.9921C1.17596 19.5482 1.04799 19.0683 1.008 18.5604C1 18.4724 1 18.3845 1 18.2964C1 13.7694 1 9.2423 1 4.71524C1 3.72744 1.35193 2.87161 2.03579 2.15177C2.57968 1.57989 3.24754 1.21995 4.02738 1.06399C4.24333 1.02 4.45929 1 4.67925 1L11.5658 1.004Z" fill="#D45858"/>
<path d="M11.5658 1.004C13.8493 1.004 16.1289 1.004 18.4124 1.004C19.3522 1.004 20.176 1.32793 20.8799 1.9478C21.5197 2.51569 21.9157 3.21955 22.0757 4.05937C22.1156 4.27933 22.1356 4.49928 22.1356 4.71923C22.1356 9.2383 22.1356 13.7574 22.1356 18.2724C22.1356 20.0761 20.8519 21.5517 19.1722 21.9117C18.9123 21.9676 18.6524 21.9957 18.3884 21.9957C13.8414 21.9957 9.29425 22.0077 4.74722 21.9917C3.25954 21.9877 2.14777 21.2838 1.42391 19.9921C1.17596 19.5482 1.04799 19.0683 1.008 18.5604C1 18.4724 1 18.3845 1 18.2964C1 13.7694 1 9.2423 1 4.71524C1 3.72744 1.35193 2.87161 2.03579 2.15177C2.57968 1.57989 3.24754 1.21995 4.02738 1.06399C4.24333 1.02 4.45929 1 4.67925 1L11.5658 1.004Z" stroke="white" stroke-width="1.3" stroke-miterlimit="10"/>
<path d="M40 9.40526C40 8.01901 40 6.61875 40 5.2325C40 4.50437 40.5383 4.00028 41.3159 4.00028C41.8394 4.00028 42.3777 4.00028 42.9011 4.00028C43.7086 4.00028 44.2469 4.50437 44.2469 5.26051C44.2469 7.93499 44.2469 10.6095 44.2469 13.284C44.2469 13.69 44.3068 14.1101 44.4563 14.5022C44.7852 15.3563 45.4283 15.8884 46.3704 16.1125C47.1031 16.2945 47.8807 16.2945 48.6135 16.1125C49.7799 15.8184 50.4379 15.1043 50.6622 14.0121C50.7219 13.704 50.7519 13.3959 50.7519 13.0879C50.7519 10.4695 50.7519 7.86498 50.7519 5.2465C50.7519 4.49036 51.2753 4.00028 52.0828 4.00028C52.6211 4.00028 53.1595 4.00028 53.6978 4.00028C54.4007 3.98628 54.9689 4.50437 54.9838 5.16249C54.9838 5.17649 54.9838 5.19049 54.9838 5.20449C54.9838 7.94899 55.0287 10.7075 54.9689 13.438C54.9091 16.7846 52.5912 19.277 49.1369 19.8511C47.2078 20.1732 45.3386 19.9912 43.604 19.123C41.6749 18.1429 40.5533 16.6166 40.1347 14.6142C40.0449 14.1241 40 13.62 40 13.1299C40.015 11.8837 40 10.6375 40 9.40526Z" fill="#F8F8F8"/>
<path d="M75.0437 11.4914V4.39016C75.0437 3.55653 75.5681 3.00078 76.3547 3.00078C76.8499 3.00078 77.3597 3.00078 77.855 3.00078C78.6562 3.00078 79.1806 3.55652 79.1806 4.42103C79.1806 5.84128 79.1806 7.2461 79.1806 8.66636C79.1806 8.97511 79.3554 9.14492 79.6175 9.09861C79.7195 9.06774 79.807 9.00598 79.8652 8.91336C81.2053 7.1226 82.5454 5.34729 83.8855 3.55652C84.1332 3.20147 84.5411 2.98534 84.9635 3.00078C85.5461 3.01621 86.1289 3.01621 86.6969 3.00078C87.2213 2.98534 87.6146 3.2169 87.8477 3.7109C88.0953 4.22034 88.037 4.69891 87.702 5.1466C86.9008 6.22722 86.0997 7.32329 85.2986 8.40392C84.643 9.28386 84.0021 10.1638 83.3466 11.0438C83.1282 11.3371 83.1282 11.6458 83.3466 11.9391C84.7887 13.8843 86.2162 15.8448 87.6729 17.7745C88.2847 18.5927 87.9205 19.6116 87.1776 19.9049C87.032 19.9512 86.8863 19.982 86.7406 19.982C86.1289 19.982 85.5316 19.982 84.9198 19.982C84.5119 19.9975 84.1332 19.7969 83.8855 19.4572C82.5454 17.6819 81.2053 15.9066 79.8798 14.1313C79.7487 13.9614 79.6175 13.838 79.3991 13.9152C79.1806 13.9923 79.1514 14.193 79.1514 14.4091C79.1514 15.7985 79.1369 17.1725 79.1514 18.5618C79.166 19.4417 78.5397 20.0439 77.7822 19.9975C77.2723 19.9667 76.7479 19.9975 76.2381 19.9975C75.5681 20.013 75 19.4417 75 18.7316C75 18.7162 75 18.7008 75 18.6854C75.0437 16.2771 75.0437 13.8843 75.0437 11.4914Z" fill="#F8F8F8"/>
<path d="M66.1843 16.1582C67.1158 16.1582 68.0329 15.8561 68.7637 15.2951C69.1507 15.0075 69.5949 14.9931 70.0248 15.2088C70.4977 15.4534 70.9563 15.7123 71.4005 15.9856C71.9737 16.3308 72.1599 17.0645 71.816 17.6398C71.7587 17.7406 71.6871 17.8269 71.6011 17.8988C70.6839 18.7619 69.5662 19.3804 68.3482 19.6825C64.737 20.5456 61.6131 19.6537 59.0766 16.9494C57.9016 15.7123 57.1851 14.1156 57.0418 12.4182C56.7265 8.86514 58.2025 6.20396 61.1689 4.31955C62.5015 3.47085 63.9775 3.06807 65.5539 3.01053C67.7893 2.90984 69.7812 3.52838 71.5008 4.98125C72.0883 5.47034 72.1599 6.21834 71.7014 6.76496C71.6154 6.86566 71.5151 6.95197 71.4005 7.0095C70.9419 7.26843 70.4977 7.52735 70.0391 7.77189C69.5949 8.00205 69.1507 8.00205 68.7637 7.69997C67.2017 6.49165 64.6797 6.59235 63.0747 7.72874C61.7851 8.64937 61.0399 9.88647 61.0399 11.4688C61.0399 13.3245 61.957 14.6766 63.562 15.5684C64.3214 15.9856 65.1526 16.1582 66.1843 16.1582Z" fill="#F8F8F8"/>
<path d="M27 11.5164C27 9.16773 27.0144 6.80357 27 4.45488C27 3.58956 27.6039 2.95603 28.3515 3.00239C28.8403 3.03329 29.3292 3.00239 29.818 3.00239C30.6087 3.00239 31.1264 3.55866 31.1264 4.40852C31.1264 5.61378 31.112 6.80357 31.112 8.00883C31.112 10.5739 31.112 13.1543 31.112 15.7194C31.112 16.2756 31.3421 16.5229 31.8597 16.5229H36.633C37.4813 16.5229 37.9845 17.0637 37.9845 17.9754C37.9845 18.2999 38.0276 18.6244 37.9701 18.9489C37.8695 19.5669 37.3662 20.015 36.7768 19.9996C33.93 19.9996 31.0832 19.9996 28.2364 19.9996C27.5176 19.9996 27.0144 19.4279 27.0144 18.6244C27 16.2756 27 13.896 27 11.5164Z" fill="#F8F8F8"/>
</svg>
