<svg width="98" height="23" viewBox="0 0 98 23" fill="none" xmlns="http://www.w3.org/2000/svg">
<g filter="url(#filter0_d)">
<path d="M12.667 1.00404C14.9724 1.00404 17.2738 1.00404 19.5792 1.00404C20.528 1.00404 21.3597 1.33107 22.0703 1.95688C22.7163 2.53021 23.1161 3.24081 23.2776 4.08868C23.3179 4.31074 23.3381 4.5328 23.3381 4.75486C23.3381 9.31722 23.3381 13.8796 23.3381 18.4379C23.3381 20.2588 22.0421 21.7486 20.3463 22.112C20.0839 22.1685 19.8215 22.1968 19.555 22.1968C14.9644 22.1968 10.3737 22.2089 5.78312 22.1928C4.28118 22.1887 3.15876 21.4781 2.42797 20.174C2.17765 19.7259 2.04845 19.2414 2.00808 18.7286C2 18.6398 2 18.551 2 18.4621C2 13.8917 2 9.32126 2 4.75083C2 3.75357 2.3553 2.88954 3.04571 2.1628C3.59481 1.58544 4.26907 1.22206 5.05638 1.0646C5.2744 1.02019 5.49243 1 5.71449 1L12.667 1.00404Z" fill="#D45858"/>
<path d="M12.667 1.00404C14.9724 1.00404 17.2738 1.00404 19.5792 1.00404C20.528 1.00404 21.3597 1.33107 22.0703 1.95688C22.7163 2.53021 23.1161 3.24081 23.2776 4.08868C23.3179 4.31074 23.3381 4.5328 23.3381 4.75486C23.3381 9.31722 23.3381 13.8796 23.3381 18.4379C23.3381 20.2588 22.0421 21.7486 20.3463 22.112C20.0839 22.1685 19.8215 22.1968 19.555 22.1968C14.9644 22.1968 10.3737 22.2089 5.78312 22.1928C4.28118 22.1887 3.15876 21.4781 2.42797 20.174C2.17765 19.7259 2.04845 19.2414 2.00808 18.7286C2 18.6398 2 18.551 2 18.4621C2 13.8917 2 9.32126 2 4.75083C2 3.75357 2.3553 2.88954 3.04571 2.1628C3.59481 1.58544 4.26907 1.22206 5.05638 1.0646C5.2744 1.02019 5.49243 1 5.71449 1L12.667 1.00404Z" stroke="white" stroke-width="1.3" stroke-miterlimit="10"/>
</g>
<path d="M43.3641 8.85257C43.3641 7.22099 43.3641 5.57292 43.3641 3.94134C43.3641 3.08435 43.9574 2.49105 44.8144 2.49105C45.3913 2.49105 45.9846 2.49105 46.5614 2.49105C47.4513 2.49105 48.0446 3.08435 48.0446 3.97431C48.0446 7.1221 48.0446 10.2699 48.0446 13.4177C48.0446 13.8956 48.1106 14.3901 48.2754 14.8515C48.6379 15.8568 49.3466 16.4831 50.3849 16.7468C51.1924 16.961 52.0494 16.961 52.857 16.7468C54.1425 16.4007 54.8676 15.5602 55.1148 14.2747C55.1807 13.9121 55.2137 13.5495 55.2137 13.187C55.2137 10.1051 55.2137 7.0397 55.2137 3.95782C55.2137 3.06787 55.7905 2.49105 56.6805 2.49105C57.2738 2.49105 57.8671 2.49105 58.4604 2.49105C59.235 2.47457 59.8612 3.08435 59.8777 3.85894C59.8777 3.87542 59.8777 3.8919 59.8777 3.90838C59.8777 7.13858 59.9272 10.3853 59.8612 13.599C59.7953 17.5379 57.2408 20.4714 53.4338 21.1471C51.3078 21.5262 49.2477 21.3119 47.336 20.2901C45.21 19.1365 43.9739 17.3401 43.5125 14.9834C43.4136 14.4065 43.3641 13.8132 43.3641 13.2364C43.3806 11.7696 43.3641 10.3029 43.3641 8.85257Z" fill="#F8F8F8"/>
<path d="M82.3413 11.5388V3.95772C82.3413 3.06776 82.9346 2.47446 83.8246 2.47446C84.3849 2.47446 84.9617 2.47446 85.5221 2.47446C86.4285 2.47446 87.0218 3.06776 87.0218 3.99068C87.0218 5.50689 87.0218 7.00663 87.0218 8.52285C87.0218 8.85246 87.2196 9.03375 87.5162 8.98431C87.6316 8.95135 87.7305 8.88542 87.7964 8.78654C89.3126 6.87478 90.8288 4.97952 92.345 3.06776C92.6252 2.68871 93.0867 2.45798 93.5646 2.47446C94.2238 2.49094 94.8831 2.49094 95.5258 2.47446C96.1191 2.45798 96.5641 2.70519 96.8278 3.23257C97.1079 3.77643 97.042 4.28733 96.663 4.76527C95.7565 5.91891 94.8501 7.08904 93.9437 8.24268C93.202 9.18207 92.4769 10.1215 91.7353 11.0609C91.4881 11.374 91.4881 11.7036 91.7353 12.0167C93.3668 14.0933 94.9819 16.1863 96.63 18.2464C97.3222 19.1199 96.9102 20.2076 96.0697 20.5207C95.9049 20.5702 95.7401 20.6031 95.5752 20.6031C94.8831 20.6031 94.2074 20.6031 93.5152 20.6031C93.0537 20.6196 92.6252 20.4054 92.345 20.0428C90.8288 18.1475 89.3126 16.2523 87.8129 14.357C87.6646 14.1757 87.5162 14.0439 87.269 14.1263C87.0218 14.2087 86.9888 14.4229 86.9888 14.6536C86.9888 16.1369 86.9724 17.6037 86.9888 19.0869C87.0053 20.0263 86.2967 20.6691 85.4397 20.6196C84.8628 20.5867 84.2695 20.6196 83.6927 20.6196C82.9346 20.6361 82.2919 20.0263 82.2919 19.2682C82.2919 19.2517 82.2919 19.2353 82.2919 19.2188C82.3413 16.6478 82.3413 14.0933 82.3413 11.5388Z" fill="#F8F8F8"/>
<path d="M72.7822 16.9115C73.8535 16.9115 74.9082 16.5654 75.7487 15.9227C76.1937 15.5931 76.7046 15.5766 77.199 15.8238C77.7429 16.104 78.2703 16.4006 78.7812 16.7138C79.4404 17.1093 79.6546 17.9498 79.2591 18.609C79.1932 18.7244 79.1108 18.8233 79.0119 18.9057C77.9571 19.8945 76.6716 20.6032 75.2708 20.9493C71.1177 21.9381 67.5249 20.9163 64.6078 17.818C63.2564 16.4006 62.4324 14.5713 62.2676 12.6266C61.905 8.55586 63.6025 5.50695 67.014 3.34799C68.5467 2.37563 70.2442 1.91417 72.0571 1.84825C74.628 1.73289 76.9189 2.44155 78.8965 4.10609C79.5722 4.66644 79.6546 5.52343 79.1273 6.14969C79.0284 6.26506 78.913 6.36394 78.7812 6.42986C78.2538 6.72651 77.7429 7.02316 77.2155 7.30333C76.7046 7.56702 76.1937 7.56702 75.7487 7.22093C73.9523 5.83656 71.0517 5.95193 69.2059 7.25389C67.7227 8.30865 66.8657 9.72599 66.8657 11.5389C66.8657 13.6649 67.9204 15.214 69.7663 16.2358C70.6397 16.7138 71.5956 16.9115 72.7822 16.9115Z" fill="#F8F8F8"/>
<path d="M28.7954 11.5553C28.7954 9.05024 28.8119 6.5287 28.7954 4.02365C28.7954 3.10073 29.4876 2.42503 30.3446 2.47447C30.9049 2.50743 31.4653 2.47447 32.0256 2.47447C32.932 2.47447 33.5254 3.06777 33.5254 3.97421C33.5254 5.2597 33.5089 6.5287 33.5089 7.81419C33.5089 10.55 33.5089 13.3022 33.5089 16.038C33.5089 16.6313 33.7726 16.895 34.3659 16.895H39.8374C40.8098 16.895 41.3866 17.4718 41.3866 18.4442C41.3866 18.7903 41.436 19.1364 41.3701 19.4825C41.2548 20.1417 40.6779 20.6196 40.0022 20.6032C36.7391 20.6032 33.4759 20.6032 30.2127 20.6032C29.3887 20.6032 28.8119 19.9934 28.8119 19.1364C28.7954 16.6313 28.7954 14.0933 28.7954 11.5553Z" fill="#F8F8F8"/>
<defs>
<filter id="filter0_d" x="0.607984" y="0.350098" width="24.1221" height="23.9851" filterUnits="userSpaceOnUse" color-interpolation-filters="sRGB">
<feFlood flood-opacity="0" result="BackgroundImageFix"/>
<feColorMatrix in="SourceAlpha" type="matrix" values="0 0 0 0 0 0 0 0 0 0 0 0 0 0 0 0 0 0 127 0"/>
<feOffset dy="0.741992"/>
<feGaussianBlur stdDeviation="0.370996"/>
<feColorMatrix type="matrix" values="0 0 0 0 0 0 0 0 0 0 0 0 0 0 0 0 0 0 0.15 0"/>
<feBlend mode="normal" in2="BackgroundImageFix" result="effect1_dropShadow"/>
<feBlend mode="normal" in="SourceGraphic" in2="effect1_dropShadow" result="shape"/>
</filter>
</defs>
</svg>
