<?xml version="1.0" encoding="utf-8"?>
<!-- Generator: Adobe Illustrator 21.1.0, SVG Export Plug-In . SVG Version: 6.00 Build 0)  -->
<svg version="1.1" id="Warstwa_1" xmlns="http://www.w3.org/2000/svg" xmlns:xlink="http://www.w3.org/1999/xlink" x="0px" y="0px"
	 viewBox="0 0 1080 1080" style="enable-background:new 0 0 1080 1080;" xml:space="preserve">
<title>strzalki2</title>
<g>
	<path d="M539,677.3c17.9-14.1,35.6-28.1,53.2-42c119.7-94.4,239.4-188.8,359-283.3c9-7.1,18.7-8.2,27.8-2.3
		c13,8.4,22.6,20.2,27,35.3c2.8,9.8-0.4,18.3-8.7,24.8c-120.2,94.8-240.5,189.6-360.7,284.5c-26.9,21.3-53.8,42.7-80.6,64.1
		c-11.3,9-22.8,9.1-34.1,0.1C375.3,642.6,228.7,526.6,81.9,410.9c-12.7-10-13.2-24.6-6.4-35.5c4.6-7.3,10-14.2,16-20.4
		c11.1-11.5,24-11.8,36.6-2c135.1,106.6,270.2,213.2,405.4,319.9C535.1,674.3,536.8,675.6,539,677.3z"/>
</g>
</svg>
